<svg id="visual" viewBox="0 0 960 540" width="960" height="540" xmlns="http://www.w3.org/2000/svg" xmlns:xlink="http://www.w3.org/1999/xlink" version="1.1"><path d="M0 397L22.8 383.8C45.7 370.7 91.3 344.3 137 345.5C182.7 346.7 228.3 375.3 274 379.5C319.7 383.7 365.3 363.3 411.2 352C457 340.7 503 338.3 548.8 348.3C594.7 358.3 640.3 380.7 686 381.8C731.7 383 777.3 363 823 355.8C868.7 348.7 914.3 354.3 937.2 357.2L960 360L960 541L937.2 541C914.3 541 868.7 541 823 541C777.3 541 731.7 541 686 541C640.3 541 594.7 541 548.8 541C503 541 457 541 411.2 541C365.3 541 319.7 541 274 541C228.3 541 182.7 541 137 541C91.3 541 45.7 541 22.8 541L0 541Z" fill="#fa7268"></path><path d="M0 440L22.8 440.7C45.7 441.3 91.3 442.7 137 440.8C182.7 439 228.3 434 274 422.3C319.7 410.7 365.3 392.3 411.2 392.8C457 393.3 503 412.7 548.8 412.8C594.7 413 640.3 394 686 383C731.7 372 777.3 369 823 373.8C868.7 378.7 914.3 391.3 937.2 397.7L960 404L960 541L937.2 541C914.3 541 868.7 541 823 541C777.3 541 731.7 541 686 541C640.3 541 594.7 541 548.8 541C503 541 457 541 411.2 541C365.3 541 319.7 541 274 541C228.3 541 182.7 541 137 541C91.3 541 45.7 541 22.8 541L0 541Z" fill="#eb5967"></path><path d="M0 478L22.8 472C45.7 466 91.3 454 137 448.7C182.7 443.3 228.3 444.7 274 440C319.7 435.3 365.3 424.7 411.2 422.7C457 420.7 503 427.3 548.8 435.8C594.7 444.3 640.3 454.7 686 454.2C731.7 453.7 777.3 442.3 823 443.2C868.7 444 914.3 457 937.2 463.5L960 470L960 541L937.2 541C914.3 541 868.7 541 823 541C777.3 541 731.7 541 686 541C640.3 541 594.7 541 548.8 541C503 541 457 541 411.2 541C365.3 541 319.7 541 274 541C228.3 541 182.7 541 137 541C91.3 541 45.7 541 22.8 541L0 541Z" fill="#da3f67"></path><path d="M0 480L22.8 476.7C45.7 473.3 91.3 466.7 137 471.3C182.7 476 228.3 492 274 498.2C319.7 504.3 365.3 500.7 411.2 492.3C457 484 503 471 548.8 470.8C594.7 470.7 640.3 483.3 686 485C731.7 486.7 777.3 477.3 823 476.2C868.7 475 914.3 482 937.2 485.5L960 489L960 541L937.2 541C914.3 541 868.7 541 823 541C777.3 541 731.7 541 686 541C640.3 541 594.7 541 548.8 541C503 541 457 541 411.2 541C365.3 541 319.7 541 274 541C228.3 541 182.7 541 137 541C91.3 541 45.7 541 22.8 541L0 541Z" fill="#c62368"></path></svg>