<svg xmlns="http://www.w3.org/2000/svg" version="1.1" xmlns:xlink="http://www.w3.org/1999/xlink" xmlns:svgjs="http://svgjs.com/svgjs" width="1440" height="560" preserveAspectRatio="none" viewBox="0 0 1440 560"><g mask="url(&quot;#SvgjsMask1001&quot;)" fill="none"><path d="M1300.501,302.138C1345.254,300.742,1390.21,288.49,1415.017,251.215C1442.661,209.677,1449.748,156.474,1426.993,112.069C1402.224,63.733,1354.787,26.044,1300.501,27.741C1248.367,29.371,1212.218,73.913,1187.001,119.571C1162.835,163.326,1146.511,216.319,1172.902,258.769C1198.323,299.659,1252.376,303.639,1300.501,302.138" fill="rgba(28, 83, 142, 0.4)" class="triangle-float3"></path><path d="M1245.0945824549974 643.614710575386L1333.8695674958485 529.9879113242827 1220.2427682447453 441.2129262834315 1131.4677832038942 554.8397255345349z" fill="rgba(28, 83, 142, 0.4)" class="triangle-float2"></path><path d="M296.759,301.878C313.76,301.094,327.426,289.547,335.969,274.827C344.551,260.039,347.389,242.629,340.128,227.15C331.585,208.938,316.874,191.093,296.759,191.242C276.797,191.39,263.778,210.114,254.487,227.783C245.988,243.946,241.691,262.897,250.74,278.758C259.857,294.739,278.38,302.726,296.759,301.878" fill="rgba(28, 83, 142, 0.4)" class="triangle-float1"></path><path d="M881.451,377.929C921.844,378.074,948.372,340.274,967.664,304.786C985.852,271.329,998.33,231.498,978.84,198.783C959.677,166.616,918.879,159.036,881.451,160.07C846.18,161.045,810.908,173.542,792.958,203.919C774.728,234.771,780.058,272.228,796.302,304.171C814.546,340.046,841.204,377.785,881.451,377.929" fill="rgba(28, 83, 142, 0.4)" class="triangle-float1"></path><path d="M1018.225,494.011C1033.633,494.04,1044.366,480.463,1051.835,466.986C1059.016,454.028,1063.032,438.809,1056.063,425.735C1048.724,411.967,1033.799,402.992,1018.225,403.932C1003.899,404.796,994.275,417.191,987.548,429.869C981.338,441.573,979.119,454.905,984.836,466.858C991.47,480.728,1002.85,493.982,1018.225,494.011" fill="rgba(28, 83, 142, 0.4)" class="triangle-float1"></path><path d="M562.05666750513-5.582446992156186L480.10277321549836-43.79817551503661 441.88704469261796 38.15571877459502 523.8409389822496 76.37144729747544z" fill="rgba(28, 83, 142, 0.4)" class="triangle-float2"></path></g><defs><mask id="SvgjsMask1001"><rect width="1440" height="560" fill="#ffffff"></rect></mask><style>
            @keyframes float1 {
                0%{transform: translate(0, 0)}
                50%{transform: translate(-10px, 0)}
                100%{transform: translate(0, 0)}
            }

            .triangle-float1 {
                animation: float1 5s infinite;
            }

            @keyframes float2 {
                0%{transform: translate(0, 0)}
                50%{transform: translate(-5px, -5px)}
                100%{transform: translate(0, 0)}
            }

            .triangle-float2 {
                animation: float2 4s infinite;
            }

            @keyframes float3 {
                0%{transform: translate(0, 0)}
                50%{transform: translate(0, -10px)}
                100%{transform: translate(0, 0)}
            }

            .triangle-float3 {
                animation: float3 6s infinite;
            }
        </style></defs></svg>