<svg xmlns="http://www.w3.org/2000/svg" version="1.1" xmlns:xlink="http://www.w3.org/1999/xlink" xmlns:svgjs="http://svgjs.com/svgjs" width="1440" height="560" preserveAspectRatio="none" viewBox="0 0 1440 560"><g mask="url(&quot;#SvgjsMask1001&quot;)" fill="none"><path d="M1488 560L0 560 L0 307.43Q95.23 282.66, 120 377.89Q168.4 306.29, 240 354.69Q254.43 297.12, 312 311.54Q336.75 264.29, 384 289.04Q462.52 247.56, 504 326.08Q589.81 291.89, 624 377.7Q646.31 328.01, 696 350.32Q702.77 285.09, 768 291.85Q809.63 261.49, 840 303.12Q882.52 273.64, 912 316.17Q962.38 294.55, 984 344.92Q1022.94 263.87, 1104 302.81Q1132.6 259.41, 1176 288.01Q1249.17 241.19, 1296 314.36Q1338.86 285.22, 1368 328.07Q1440.04 280.11, 1488 352.14z" fill="#182f5d"></path><path d="M1512 560L0 560 L0 378.78Q50.56 357.34, 72 407.9Q146.11 362, 192 436.11Q229.78 353.89, 312 391.67Q364.06 323.73, 432 375.78Q514.25 338.03, 552 420.29Q584.38 332.67, 672 365.05Q726.14 299.19, 792 353.33Q867.01 308.34, 912 383.35Q962.78 314.13, 1032 364.92Q1116.42 329.35, 1152 413.77Q1221.65 363.42, 1272 433.08Q1301.72 342.8, 1392 372.53Q1476.41 336.94, 1512 421.36z" fill="#25467d"></path><path d="M1464 560L0 560 L0 468.98Q19.25 416.23, 72 435.47Q117.17 408.64, 144 453.81Q211.11 400.92, 264 468.03Q285.56 417.58, 336 439.14Q377.43 408.56, 408 449.99Q431.34 401.33, 480 424.67Q557.76 382.44, 600 460.2Q652.32 440.52, 672 492.84Q700.79 401.63, 792 430.43Q858.21 376.64, 912 442.86Q972.19 431.05, 984 491.24Q1035.82 423.06, 1104 474.88Q1143.19 394.07, 1224 433.27Q1291.4 380.67, 1344 448.07Q1391.14 375.22, 1464 422.36z" fill="#356cb1"></path><path d="M1512 560L0 560 L0 565.11Q43.74 488.85, 120 532.59Q174.09 466.68, 240 520.78Q307.66 516.44, 312 584.1Q347.26 499.37, 432 534.63Q475.38 458, 552 501.38Q609.79 487.17, 624 544.96Q673.97 474.93, 744 524.9Q830.09 490.99, 864 577.07Q885.12 478.19, 984 499.31Q1029.88 473.18, 1056 519.06Q1122.74 465.8, 1176 532.55Q1234.96 519.51, 1248 578.48Q1275.24 533.73, 1320 560.97Q1329.53 498.5, 1392 508.03Q1459.46 455.49, 1512 522.95z" fill="white"></path></g><defs><mask id="SvgjsMask1001"><rect width="1440" height="560" fill="#ffffff"></rect></mask></defs></svg>